<svg width="390" height="1179" viewBox="0 0 390 1179" fill="none" xmlns="http://www.w3.org/2000/svg">
<g clip-path="url(#clip0_2423_3045)" filter="url(#filter0_f_2423_3045)">
<rect width="1440" height="544" transform="matrix(0 -1 1 0 -75 1440)" fill="black" fill-opacity="0.1"/>
<path opacity="0.15" d="M162.88 65.8084C199.97 32.2967 264.451 5.11823 309.973 55.2038C314.666 60.3677 357.248 108.823 351.96 181.697C345.52 270.458 275.812 288.66 257.716 386.618C238.119 492.702 304.425 554.963 284.056 606.769C259.97 668.029 130.071 675.549 74.3957 564.669C7.32551 431.094 63.1512 155.918 162.88 65.8084Z" fill="#EBC136"/>
<path opacity="0.15" d="M354.639 900.755C335.569 869.693 297.148 835.845 258.285 856.866C254.278 859.034 217.654 879.738 208.834 928.321C198.09 987.495 241.52 1016.84 236.996 1084.91C232.096 1158.63 177.301 1182.31 182.114 1221.03C187.806 1266.81 273.21 1304.37 329.149 1246.49C396.538 1176.75 405.917 984.277 354.639 900.755Z" fill="#EBC136"/>
<path opacity="0.15" d="M246.89 718.425C225.799 733.813 185.221 749.536 147.859 736.053C144.007 734.663 108.857 721.481 103.297 695.123C96.5256 663.017 141.799 649.987 141.823 613.519C141.849 574.027 88.7743 558.183 96.1553 537.878C104.883 513.869 192.57 498.956 244.508 533.056C307.075 574.135 303.602 677.047 246.89 718.425Z" fill="#EBC136"/>
<path opacity="0.15" d="M199.802 730.533C189.124 713.715 167.633 695.378 145.936 706.723C143.699 707.893 123.254 719.069 118.363 745.346C112.407 777.351 136.693 793.255 134.218 830.077C131.538 869.953 100.943 882.73 103.661 903.678C106.876 928.45 154.62 948.829 185.828 917.552C223.423 879.872 228.514 775.753 199.802 730.533Z" fill="#EBC136"/>
<path opacity="0.15" d="M173.365 6.37652C157.046 -11.7597 124.494 -31.7 92.1918 -19.9471C88.8615 -18.7354 58.4303 -7.14306 51.5947 20.8341C43.2688 54.9105 79.9645 72.2986 76.9464 111.577C73.678 154.113 28.0665 167.245 32.5345 189.66C37.8178 216.166 109.751 238.725 155.934 205.847C211.569 166.24 217.244 55.1429 173.365 6.37652Z" fill="#8047F8"/>
<path opacity="0.15" d="M302.852 -5.60535C313.804 -19.7063 335.725 -35.1506 357.622 -25.8383C359.88 -24.8782 380.511 -15.6988 385.261 6.18378C391.047 32.837 366.312 46.2707 368.533 76.9659C370.938 110.207 401.841 120.651 398.922 138.143C395.471 158.826 346.932 176.156 315.552 150.285C277.749 119.119 273.404 32.3108 302.852 -5.60535Z" fill="#8047F8"/>
<path opacity="0.15" d="M61.8915 1193.06C83.6161 1180.49 125.056 1168.07 162.492 1180.3C166.351 1181.57 201.558 1193.5 206.502 1215.94C212.524 1243.28 166.405 1253.32 165.442 1284.21C164.4 1317.65 217.665 1332.23 209.678 1349.27C200.234 1369.41 111.175 1380.12 59.5305 1350.1C-2.68476 1313.94 3.47625 1226.86 61.8915 1193.06Z" fill="#EBC136"/>
<path opacity="0.15" d="M357.947 551.493C338.727 577.379 300.18 602.538 261.528 576.074C257.543 573.346 221.123 547.566 212.62 500.4C202.262 442.952 245.78 422.891 241.683 358.159C237.246 288.059 182.712 256.338 187.753 220.797C193.713 178.77 279.166 158.24 334.631 222.288C401.449 299.446 409.627 481.888 357.947 551.493Z" fill="#EBC136"/>
<path opacity="0.15" d="M324.538 625.078C305.513 603.436 268.904 580.751 235.187 598.033C231.71 599.815 199.989 616.752 194.962 652.57C188.84 696.195 229.687 715.346 229.695 765.132C229.704 819.047 181.808 839.08 188.46 867.021C196.327 900.061 275.444 923.058 322.321 878.069C378.792 823.871 375.695 683.272 324.538 625.078Z" fill="#8047F8"/>
<path opacity="0.15" d="M66.0038 577.528C76.6655 536.981 96.4645 493.921 113.257 524.664C114.989 527.833 130.762 558.007 132.009 623.89C133.528 704.137 111.67 740.819 109.784 832.631C107.742 932.057 131.767 967.399 127.269 1019.15C121.95 1080.34 80.1453 1125.4 57.5908 1044C30.42 945.942 37.3353 686.557 66.0038 577.528Z" fill="#8047F8"/>
</g>
<defs>
<filter id="filter0_f_2423_3045" x="-235" y="-160" width="864" height="1760" filterUnits="userSpaceOnUse" color-interpolation-filters="sRGB">
<feFlood flood-opacity="0" result="BackgroundImageFix"/>
<feBlend mode="normal" in="SourceGraphic" in2="BackgroundImageFix" result="shape"/>
<feGaussianBlur stdDeviation="80" result="effect1_foregroundBlur_2423_3045"/>
</filter>
<clipPath id="clip0_2423_3045">
<rect width="1440" height="544" fill="white" transform="matrix(0 -1 1 0 -75 1440)"/>
</clipPath>
</defs>
</svg>
